# xmcd
#
# Track frame offsets: 
#        150
#        20830
#        36537
#        53600
#        73185
#        90265
#        105362
#        122335
#        150597
#        170370
#
# Disc length: 2569 seconds
#
# Revision: 2
# Processed by: cddbd v1.4PL0 Copyright (c) Steve Scherf et al.
# Submitted via: ExactAudioCopy v0.90b4
#
DISCID=750a070a
DTITLE=James Blundell - Earth
DYEAR=1995
DGENRE=Country
TTITLE0=Dust
TTITLE1=Carry A Candle
TTITLE2=Perpetual Child
TTITLE3=Touch In Love
TTITLE4=Forgive And Forget
TTITLE5=Handshake Deal
TTITLE6=This Poor Town
TTITLE7=My Old Friend And General Lee
TTITLE8=The Tree
TTITLE9=Drowning In This Drought
EXTD=
EXTT0=
EXTT1=
EXTT2=
EXTT3=
EXTT4=
EXTT5=
EXTT6=
EXTT7=
EXTT8=
EXTT9=
PLAYORDER=
